<svg width="263" height="197" viewBox="0 0 263 197" fill="none" xmlns="http://www.w3.org/2000/svg">
<rect width="263" height="197" fill="#C4C4C4"/>
<rect x="43.5" y="21.5" width="21" height="23" fill="#E3DBDB" stroke="#6F6A6A" stroke-width="3" stroke-linejoin="round"/>
<rect x="82.5" y="21.5" width="20" height="23" fill="#E3DBDB" stroke="#6F6A6A" stroke-width="3" stroke-linejoin="round"/>
<rect x="121.5" y="21.5" width="20" height="23" fill="#E3DBDB" stroke="#6F6A6A" stroke-width="3" stroke-linejoin="round"/>
<rect x="160.5" y="21.5" width="20" height="23" fill="#E3DBDB" stroke="#6F6A6A" stroke-width="3" stroke-linejoin="round"/>
<rect x="198.5" y="21.5" width="21" height="23" fill="#E3DBDB" stroke="#6F6A6A" stroke-width="3" stroke-linejoin="round"/>
<rect x="43.5" y="65.5" width="21" height="23" fill="#9E5656" stroke="#6F6A6A" stroke-width="3" stroke-linejoin="round"/>
<rect x="82.5" y="65.5" width="20" height="23" fill="#9E5656" stroke="#6F6A6A" stroke-width="3" stroke-linejoin="round"/>
<rect x="121.5" y="65.5" width="20" height="23" fill="#9E5656" stroke="#6F6A6A" stroke-width="3" stroke-linejoin="round"/>
<rect x="160.5" y="65.5" width="20" height="23" fill="#9E5656" stroke="#6F6A6A" stroke-width="3" stroke-linejoin="round"/>
<rect x="43.5" y="109.5" width="21" height="23" fill="#47AEAE" stroke="#6F6A6A" stroke-width="3" stroke-linejoin="round"/>
<rect x="43.5" y="153.5" width="21" height="23" fill="#DBAC24" stroke="#6F6A6A" stroke-width="3" stroke-linejoin="round"/>
<rect x="82.5" y="109.5" width="20" height="23" fill="#47AEAE" stroke="#6F6A6A" stroke-width="3" stroke-linejoin="round"/>
<rect x="82.5" y="153.5" width="20" height="23" fill="#DBAC24" stroke="#6F6A6A" stroke-width="3" stroke-linejoin="round"/>
<rect x="121.5" y="109.5" width="20" height="23" fill="#47AEAE" stroke="#6F6A6A" stroke-width="3" stroke-linejoin="round"/>
<rect x="121.5" y="153.5" width="20" height="23" fill="#DBAC24" stroke="#6F6A6A" stroke-width="3" stroke-linejoin="round"/>
<rect x="160.5" y="109.5" width="20" height="23" fill="#47AEAE" stroke="#6F6A6A" stroke-width="3" stroke-linejoin="round"/>
<rect x="160.5" y="153.5" width="20" height="23" fill="#DBAC24" stroke="#6F6A6A" stroke-width="3" stroke-linejoin="round"/>
<rect x="198.5" y="109.5" width="21" height="23" fill="#47AEAE" stroke="#6F6A6A" stroke-width="3" stroke-linejoin="round"/>
<rect x="198.5" y="153.5" width="21" height="23" fill="#DBAC24" stroke="#6F6A6A" stroke-width="3" stroke-linejoin="round"/>
<rect x="198.5" y="65.5" width="21" height="23" fill="#9E5656" stroke="#6F6A6A" stroke-width="3" stroke-linejoin="round"/>
<path d="M47 30.5C47 30.7761 47.2239 31 47.5 31C47.7761 31 48 30.7761 48 30.5H47ZM48 26.5V26H47V26.5H48ZM48 30.5V26.5H47V30.5H48Z" fill="#6F6A6A"/>
<path d="M47 74.5C47 74.7761 47.2239 75 47.5 75C47.7761 75 48 74.7761 48 74.5H47ZM48 70.5V70H47V70.5H48ZM48 74.5V70.5H47V74.5H48Z" fill="#6F6A6A"/>
<path d="M86 74.5C86 74.7761 86.2239 75 86.5 75C86.7761 75 87 74.7761 87 74.5H86ZM87 70.5V70H86V70.5H87ZM87 74.5V70.5H86V74.5H87Z" fill="#6F6A6A"/>
<path d="M125 74.5C125 74.7761 125.224 75 125.5 75C125.776 75 126 74.7761 126 74.5H125ZM126 70.5V70H125V70.5H126ZM126 74.5V70.5H125V74.5H126Z" fill="#6F6A6A"/>
<path d="M164 74.5C164 74.7761 164.224 75 164.5 75C164.776 75 165 74.7761 165 74.5H164ZM165 70.5V70H164V70.5H165ZM165 74.5V70.5H164V74.5H165Z" fill="#6F6A6A"/>
<path d="M203 74.5C203 74.7761 203.224 75 203.5 75C203.776 75 204 74.7761 204 74.5H203ZM204 70.5V70H203V70.5H204ZM204 74.5V70.5H203V74.5H204Z" fill="#6F6A6A"/>
<path d="M47 118.5C47 118.776 47.2239 119 47.5 119C47.7761 119 48 118.776 48 118.5H47ZM48 114.5V114H47V114.5H48ZM48 118.5V114.5H47V118.5H48Z" fill="#6F6A6A"/>
<path d="M86 118.5C86 118.776 86.2239 119 86.5 119C86.7761 119 87 118.776 87 118.5H86ZM87 114.5V114H86V114.5H87ZM87 118.5V114.5H86V118.5H87Z" fill="#6F6A6A"/>
<path d="M125 118.5C125 118.776 125.224 119 125.5 119C125.776 119 126 118.776 126 118.5H125ZM126 114.5V114H125V114.5H126ZM126 118.5V114.5H125V118.5H126Z" fill="#6F6A6A"/>
<path d="M164 118.5C164 118.776 164.224 119 164.5 119C164.776 119 165 118.776 165 118.5H164ZM165 114.5V114H164V114.5H165ZM165 118.5V114.5H164V118.5H165Z" fill="#6F6A6A"/>
<path d="M203 118.5C203 118.776 203.224 119 203.5 119C203.776 119 204 118.776 204 118.5H203ZM204 114.5V114H203V114.5H204ZM204 118.5V114.5H203V118.5H204Z" fill="#6F6A6A"/>
<path d="M47 162.5C47 162.776 47.2239 163 47.5 163C47.7761 163 48 162.776 48 162.5H47ZM48 158.5V158H47V158.5H48ZM48 162.5V158.5H47V162.5H48Z" fill="#6F6A6A"/>
<path d="M86 162.5C86 162.776 86.2239 163 86.5 163C86.7761 163 87 162.776 87 162.5H86ZM87 158.5V158H86V158.5H87ZM87 162.5V158.5H86V162.5H87Z" fill="#6F6A6A"/>
<path d="M125 162.5C125 162.776 125.224 163 125.5 163C125.776 163 126 162.776 126 162.5H125ZM126 158.5V158H125V158.5H126ZM126 162.5V158.5H125V162.5H126Z" fill="#6F6A6A"/>
<path d="M164 162.5C164 162.776 164.224 163 164.5 163C164.776 163 165 162.776 165 162.5H164ZM165 158.5V158H164V158.5H165ZM165 162.5V158.5H164V162.5H165Z" fill="#6F6A6A"/>
<path d="M203 162.5C203 162.776 203.224 163 203.5 163C203.776 163 204 162.776 204 162.5H203ZM204 158.5V158H203V158.5H204ZM204 162.5V158.5H203V162.5H204Z" fill="#6F6A6A"/>
<path d="M86 30.5C86 30.7761 86.2239 31 86.5 31C86.7761 31 87 30.7761 87 30.5H86ZM87 26.5V26H86V26.5H87ZM87 30.5V26.5H86V30.5H87Z" fill="#6F6A6A"/>
<path d="M125 30.5C125 30.7761 125.224 31 125.5 31C125.776 31 126 30.7761 126 30.5H125ZM126 26.5V26H125V26.5H126ZM126 30.5V26.5H125V30.5H126Z" fill="#6F6A6A"/>
<path d="M164 30.5C164 30.7761 164.224 31 164.5 31C164.776 31 165 30.7761 165 30.5H164ZM165 26.5V26H164V26.5H165ZM165 30.5V26.5H164V30.5H165Z" fill="#6F6A6A"/>
<path d="M203 30.5C203 30.7761 203.224 31 203.5 31C203.776 31 204 30.7761 204 30.5H203ZM204 26.5V26H203V26.5H204ZM204 30.5V26.5H203V30.5H204Z" fill="#6F6A6A"/>
<path d="M47.5 25H47V26H47.5V25ZM51.5 26C51.7761 26 52 25.7761 52 25.5C52 25.2239 51.7761 25 51.5 25V26ZM47.5 26H51.5V25H47.5V26Z" fill="#6F6A6A"/>
<path d="M47.5 69H47V70H47.5V69ZM51.5 70C51.7761 70 52 69.7761 52 69.5C52 69.2239 51.7761 69 51.5 69V70ZM47.5 70H51.5V69H47.5V70Z" fill="#6F6A6A"/>
<path d="M86.5 69H86V70H86.5V69ZM90.5 70C90.7761 70 91 69.7761 91 69.5C91 69.2239 90.7761 69 90.5 69V70ZM86.5 70H90.5V69H86.5V70Z" fill="#6F6A6A"/>
<path d="M125.5 69H125V70H125.5V69ZM129.5 70C129.776 70 130 69.7761 130 69.5C130 69.2239 129.776 69 129.5 69V70ZM125.5 70H129.5V69H125.5V70Z" fill="#6F6A6A"/>
<path d="M164.5 69H164V70H164.5V69ZM168.5 70C168.776 70 169 69.7761 169 69.5C169 69.2239 168.776 69 168.5 69V70ZM164.5 70H168.5V69H164.5V70Z" fill="#6F6A6A"/>
<path d="M203.5 69H203V70H203.5V69ZM207.5 70C207.776 70 208 69.7761 208 69.5C208 69.2239 207.776 69 207.5 69V70ZM203.5 70H207.5V69H203.5V70Z" fill="#6F6A6A"/>
<path d="M47.5 113H47V114H47.5V113ZM51.5 114C51.7761 114 52 113.776 52 113.5C52 113.224 51.7761 113 51.5 113V114ZM47.5 114H51.5V113H47.5V114Z" fill="#6F6A6A"/>
<path d="M86.5 113H86V114H86.5V113ZM90.5 114C90.7761 114 91 113.776 91 113.5C91 113.224 90.7761 113 90.5 113V114ZM86.5 114H90.5V113H86.5V114Z" fill="#6F6A6A"/>
<path d="M125.5 113H125V114H125.5V113ZM129.5 114C129.776 114 130 113.776 130 113.5C130 113.224 129.776 113 129.5 113V114ZM125.5 114H129.5V113H125.5V114Z" fill="#6F6A6A"/>
<path d="M164.5 113H164V114H164.5V113ZM168.5 114C168.776 114 169 113.776 169 113.5C169 113.224 168.776 113 168.5 113V114ZM164.5 114H168.5V113H164.5V114Z" fill="#6F6A6A"/>
<path d="M203.5 113H203V114H203.5V113ZM207.5 114C207.776 114 208 113.776 208 113.5C208 113.224 207.776 113 207.5 113V114ZM203.5 114H207.5V113H203.5V114Z" fill="#6F6A6A"/>
<path d="M47.5 157H47V158H47.5V157ZM51.5 158C51.7761 158 52 157.776 52 157.5C52 157.224 51.7761 157 51.5 157V158ZM47.5 158H51.5V157H47.5V158Z" fill="#6F6A6A"/>
<path d="M86.5 157H86V158H86.5V157ZM90.5 158C90.7761 158 91 157.776 91 157.5C91 157.224 90.7761 157 90.5 157V158ZM86.5 158H90.5V157H86.5V158Z" fill="#6F6A6A"/>
<path d="M125.5 157H125V158H125.5V157ZM129.5 158C129.776 158 130 157.776 130 157.5C130 157.224 129.776 157 129.5 157V158ZM125.5 158H129.5V157H125.5V158Z" fill="#6F6A6A"/>
<path d="M164.5 157H164V158H164.5V157ZM168.5 158C168.776 158 169 157.776 169 157.5C169 157.224 168.776 157 168.5 157V158ZM164.5 158H168.5V157H164.5V158Z" fill="#6F6A6A"/>
<path d="M203.5 157H203V158H203.5V157ZM207.5 158C207.776 158 208 157.776 208 157.5C208 157.224 207.776 157 207.5 157V158ZM203.5 158H207.5V157H203.5V158Z" fill="#6F6A6A"/>
<path d="M86.5 25H86V26H86.5V25ZM90.5 26C90.7761 26 91 25.7761 91 25.5C91 25.2239 90.7761 25 90.5 25V26ZM86.5 26H90.5V25H86.5V26Z" fill="#6F6A6A"/>
<path d="M125.5 25H125V26H125.5V25ZM129.5 26C129.776 26 130 25.7761 130 25.5C130 25.2239 129.776 25 129.5 25V26ZM125.5 26H129.5V25H125.5V26Z" fill="#6F6A6A"/>
<path d="M164.5 25H164V26H164.5V25ZM168.5 26C168.776 26 169 25.7761 169 25.5C169 25.2239 168.776 25 168.5 25V26ZM164.5 26H168.5V25H164.5V26Z" fill="#6F6A6A"/>
<path d="M203.5 25H203V26H203.5V25ZM207.5 26C207.776 26 208 25.7761 208 25.5C208 25.2239 207.776 25 207.5 25V26ZM203.5 26H207.5V25H203.5V26Z" fill="#6F6A6A"/>
</svg>
